<?xml version="1.0" encoding="iso-8859-1"?>
<!-- Generator: Adobe Illustrator 19.0.0, SVG Export Plug-In . SVG Version: 6.00 Build 0)  -->
<svg version="1.1" id="Capa_1" xmlns="http://www.w3.org/2000/svg" xmlns:xlink="http://www.w3.org/1999/xlink" x="0px" y="0px"
	 viewBox="0 0 512 512" style="enable-background:new 0 0 512 512;" xml:space="preserve">
<path style="fill:#7F5A52;" d="M416.884,348.174h-79.008c-23.949,0-43.434-19.483-43.434-43.431V257.05c0-4.142,3.358-7.5,7.5-7.5
	s7.5,3.358,7.5,7.5v47.693c0,15.677,12.755,28.431,28.434,28.431h79.008c4.142,0,7.5,3.358,7.5,7.5S421.026,348.174,416.884,348.174
	z"/>
<path style="fill:#A0A445;" d="M354.524,322.308c-1.185,0-2.386-0.281-3.505-0.874c-3.66-1.939-5.055-6.479-3.116-10.139
	c12.343-23.296-8.297-40.926-9.182-41.666c-3.169-2.647-3.615-7.369-0.981-10.55c2.633-3.181,7.331-3.644,10.522-1.024
	c10.805,8.869,27.406,32.876,12.896,60.262C359.812,320.859,357.212,322.308,354.524,322.308z"/>
<path style="fill:#927266;" d="M504.765,418.453c-0.32,0.4-0.66,0.8-1.01,1.19c-5.87,6.63-14.45,10.94-24.35,10.94h-28.51
	c-8.95,0-16.96-5.59-20.05-14l-56.617-153.23h77.437v24.27c0,18.3,14.2,33.28,32.19,34.52c0.12,0,0.24,0.01,0.36,0.02
	c1.22,0.13,2.24,0.88,2.74,1.94l0.21,0.57l22.81,62.11C514.165,398.203,511.575,409.983,504.765,418.453z"/>
<g>
	<path style="fill:#7F5A52;" d="M504.765,418.453c-0.33,0.4-0.66,0.8-1.01,1.19c-5.87,6.63-14.45,10.94-24.35,10.94h-28.51
		c-0.35,0-0.71-0.03-1.06-0.05c21.92-0.86,36.89-22.91,29.24-43.75l-1.52-4.14c-10.65-29-26.71-55.9-48.28-78.02
		c-4.9-5.02-8.52-10.82-8.52-17v-24.27h30.91v24.27c0,18.3,14.2,33.28,32.19,34.52c0.12,0,0.24,0.01,0.36,0.02
		c1.22,0.13,2.24,0.88,2.74,1.94l0.21,0.57l22.81,62.11C514.165,398.203,511.575,409.983,504.765,418.453z"/>
	<path style="fill:#7F5A52;" d="M469.252,462.116H353.167c-68.147,0-123.589-55.437-123.589-123.577v-51.272
		c0-4.142,3.358-7.5,7.5-7.5s7.5,3.358,7.5,7.5v51.272c0,59.87,48.712,108.577,108.588,108.577h116.086c4.142,0,7.5,3.358,7.5,7.5
		S473.394,462.116,469.252,462.116z"/>
</g>
<path style="fill:#FFD237;" d="M252.162,308.869h-30.169c-2.209,0-4-1.791-4-4v-60.218h38.169v60.218
	C256.162,307.079,254.371,308.869,252.162,308.869z"/>
<path style="fill:#927266;" d="M436.801,218.598H4c-2.209,0-4-1.791-4-4v-22.903c0-2.209,1.791-4,4-4h426.801c3.314,0,6,2.686,6,6
	V218.598z"/>
<path style="fill:#7F5A52;" d="M405.895,187.695v30.903h30.906v-24.903c0-3.314-2.686-6-6-6H405.895z"/>
<path style="fill:#F7A116;" d="M466.335,270.704H217.993v-52.106h248.341c14.375,0,26.028,11.653,26.028,26.028v0.051
	C492.362,259.051,480.709,270.704,466.335,270.704z"/>
<path style="fill:#FF7F0B;" d="M466.307,218.598h-30.906c14.39,0,26.056,11.664,26.056,26.053l0,0
	c0,14.389-11.665,26.053-26.056,26.053h30.906c14.39,0,26.056-11.664,26.056-26.053l0,0
	C492.362,230.263,480.697,218.598,466.307,218.598z"/>
<path style="fill:#A0A445;" d="M400.541,87.8c1.475,1.186,1.956,3.218,1.165,4.94c-2.847,6.196-10.959,21.034-28.488,35.227
	c-20.46,16.568-53.776,32.249-106.511,32.249c-111.807,0-118.359-66.529-118.359-68.727c0-49.281,68.57-45.959,68.57-45.959
	c39.374,0,66.097-2.29,83.827-4.931c16.988-2.53,25.701-5.372,29.335-6.812c1.374-0.545,2.928-0.301,4.081,0.625L400.541,87.8z"/>
<g>
	<path style="fill:#969159;" d="M400.541,87.8l-22.746-18.294c-3.018,6.435-11.141,20.898-28.271,34.769
		c-20.46,16.568-53.776,32.249-106.511,32.249c-41.16,0-68.043-9.02-85.598-20.523c12.399,19.749,41.488,44.215,109.293,44.215
		c52.735,0,86.052-15.681,106.511-32.249c17.529-14.193,25.642-29.031,28.488-35.227C402.497,91.019,402.016,88.987,400.541,87.8z"
		/>
	<path style="fill:#969159;" d="M401.702,92.743c-2.843,6.191-10.951,21.035-28.485,35.219l-21.304-25.68L300.744,40.6
		c16.988-2.534,25.703-5.377,29.34-6.809c1.37-0.546,2.926-0.309,4.08,0.618l43.629,35.095l22.747,18.294
		C402.011,88.984,402.496,91.023,401.702,92.743z"/>
</g>
<path style="fill:#777343;" d="M401.702,92.743c-2.843,6.191-10.951,21.035-28.485,35.219l-21.304-25.68
	c15.504-13.237,23.004-26.648,25.878-32.777l22.747,18.294C402.011,88.984,402.496,91.023,401.702,92.743z"/>
<path style="fill:#FFD237;" d="M497.312,478.5h-28.784c-13.198,0-23.896-10.699-23.896-23.896v-0.047
	c0-13.198,10.699-23.896,23.896-23.896h28.784c2.209,0,3.999,1.79,3.999,3.999v39.841C501.311,476.71,499.52,478.5,497.312,478.5z"
	/>
<path style="fill:#7F5A52;" d="M271.456,244.651h-0.001c-8.534,0-15.452-6.918-15.452-15.452v-75.844
	c0-8.534,6.918-15.452,15.452-15.452h0.001c8.534,0,15.452,6.918,15.452,15.452v75.844
	C286.908,237.733,279.99,244.651,271.456,244.651z"/>
<g>
</g>
<g>
</g>
<g>
</g>
<g>
</g>
<g>
</g>
<g>
</g>
<g>
</g>
<g>
</g>
<g>
</g>
<g>
</g>
<g>
</g>
<g>
</g>
<g>
</g>
<g>
</g>
<g>
</g>
</svg>
